<?xml version="1.0" encoding="UTF-8"?>
<!-- Wordmark de Grifos Mori compuesto en una línea a partir del logo
     vectorial del cliente. Las letras son EXACTAMENTE las del logo; lo
     único que cambia es que «GRIFOS» se escala al cuerpo de «MORI»
     (×1.317), porque en el logo van a dos cuerpos y en una línea de
     texto tienen que ir al mismo. Incluye el acento amarillo de la i. -->
<svg xmlns="http://www.w3.org/2000/svg" viewBox="0 233.42 555.17 51.84" role="img" aria-label="Grifos Mori">
<g transform="translate(-335.172 -12.954) scale(1.31654)"><path fill-rule="nonzero" fill="rgb(11.372375%, 18.03894%, 33.332825%)" fill-opacity="1" d="M 266.074219 192 C 266.355469 191.289062 266.761719 190.632812 267.289062 190.035156 C 267.816406 189.4375 268.414062 188.925781 269.082031 188.5 C 269.75 188.070312 270.484375 187.746094 271.28125 187.515625 C 272.078125 187.289062 272.902344 187.175781 273.753906 187.175781 L 302.824219 187.175781 L 297.789062 200.320312 L 278.964844 200.320312 C 278.621094 200.320312 278.34375 200.429688 278.132812 200.640625 C 277.917969 200.855469 277.769531 201.078125 277.683594 201.304688 L 273.03125 213.425781 L 275.929688 213.425781 C 278.164062 213.425781 279.808594 211.324219 279.269531 209.15625 L 277.769531 203.097656 L 292.109375 203.097656 L 294.714844 215.558594 C 294.714844 215.730469 294.691406 215.929688 294.648438 216.15625 C 294.609375 216.386719 294.550781 216.621094 294.480469 216.863281 C 294.40625 217.105469 294.34375 217.332031 294.285156 217.546875 C 294.230469 217.757812 294.1875 217.90625 294.160156 217.992188 C 293.734375 219.074219 293.070312 220.121094 292.175781 221.128906 C 291.277344 222.140625 290.28125 223.042969 289.1875 223.839844 C 288.089844 224.636719 286.972656 225.277344 285.835938 225.761719 C 284.699219 226.246094 283.671875 226.488281 282.761719 226.488281 L 258.644531 226.488281 C 257.148438 226.488281 256.015625 225.921875 255.242188 224.796875 C 254.800781 224.152344 254.585938 223.390625 254.589844 222.609375 C 254.59375 221.972656 254.695312 221.457031 254.890625 221.066406 Z M 266.074219 192 "/><path fill-rule="nonzero" fill="rgb(11.372375%, 18.03894%, 33.332825%)" fill-opacity="1" d="M 309.140625 187.175781 L 338.976562 187.175781 C 339.714844 187.175781 340.390625 187.402344 341.003906 187.859375 C 341.617188 188.3125 342.136719 188.898438 342.5625 189.609375 C 342.988281 190.320312 343.316406 191.101562 343.542969 191.957031 C 343.773438 192.808594 343.886719 193.636719 343.886719 194.429688 C 343.886719 195.03125 343.773438 195.699219 343.542969 196.4375 L 343.03125 197.761719 C 342.863281 198.160156 342.648438 198.601562 342.390625 199.082031 C 342.136719 199.566406 341.878906 199.964844 341.625 200.277344 L 331.035156 210.609375 L 340.8125 226.488281 L 323.953125 226.488281 L 316.609375 214.449219 C 316.441406 214.109375 316.261719 213.695312 316.078125 213.210938 C 315.890625 212.730469 315.800781 212.246094 315.800781 211.761719 C 315.800781 211.503906 315.84375 211.265625 315.925781 211.035156 L 316.097656 210.609375 L 321.316406 205.433594 C 323.210938 203.554688 321.882812 200.320312 319.214844 200.320312 L 309.140625 226.488281 L 294.03125 226.488281 Z M 309.140625 187.175781 "/><path fill-rule="nonzero" fill="rgb(11.372375%, 18.03894%, 33.332825%)" fill-opacity="1" d="M 350.714844 187.175781 L 365.910156 187.175781 L 350.800781 226.488281 L 335.605469 226.488281 Z M 350.714844 187.175781 "/><path fill-rule="nonzero" fill="rgb(11.372375%, 18.03894%, 33.332825%)" fill-opacity="1" d="M 372.199219 226.515625 L 356.960938 226.515625 L 372.074219 187.203125 L 401.609375 187.203125 L 396.574219 200.351562 L 388.1875 200.351562 C 384.644531 200.351562 381.492188 202.59375 380.328125 205.9375 L 394.625 205.9375 L 391.125 214.984375 L 376.828125 214.984375 Z M 372.199219 226.515625 "/><path fill-rule="nonzero" fill="rgb(11.372375%, 18.03894%, 33.332825%)" fill-opacity="1" d="M 486.714844 187.136719 L 481.675781 200.285156 L 466.863281 200.285156 L 475.316406 215.78125 C 475.316406 216.179688 475.265625 216.589844 475.167969 217.015625 C 475.066406 217.445312 474.972656 217.757812 474.890625 217.957031 L 474.847656 218 C 474.507812 218.9375 473.921875 219.90625 473.097656 220.902344 C 472.269531 221.898438 471.324219 222.808594 470.257812 223.632812 C 469.191406 224.457031 468.066406 225.132812 466.886719 225.660156 C 465.703125 226.1875 464.589844 226.449219 463.535156 226.449219 L 436.304688 226.449219 L 440.871094 214.625 L 456.707031 214.625 L 447.699219 197.808594 L 447.699219 197.636719 C 447.699219 197.355469 447.75 197.007812 447.847656 196.59375 C 447.949219 196.179688 448.042969 195.859375 448.125 195.632812 C 448.496094 194.664062 449.078125 193.675781 449.875 192.664062 C 450.671875 191.65625 451.589844 190.746094 452.628906 189.933594 C 453.667969 189.121094 454.785156 188.453125 455.980469 187.929688 C 457.175781 187.402344 458.355469 187.136719 459.523438 187.136719 Z M 486.714844 187.136719 "/><path fill-rule="nonzero" fill="rgb(11.372375%, 18.03894%, 33.332825%)" fill-opacity="1" d="M 413.78125 211.273438 L 421.039062 211.273438 L 424.964844 200.539062 L 417.707031 200.539062 Z M 445.402344 187.199219 L 432.476562 220.773438 C 431.835938 222.527344 430.777344 223.914062 429.296875 224.941406 C 427.8125 225.964844 426.148438 226.480469 424.3125 226.480469 L 392.496094 226.480469 L 405.421875 192.90625 C 406.058594 191.152344 407.117188 189.765625 408.601562 188.738281 C 410.085938 187.710938 411.746094 187.199219 413.585938 187.199219 Z M 445.402344 187.199219 "/></g>
<g transform="translate(84.573 0)"><path fill-rule="nonzero" fill="rgb(11.372375%, 18.03894%, 33.332825%)" fill-opacity="1" d="M 270.554688 233.488281 L 291.765625 233.488281 L 287.960938 261.191406 L 309.953125 233.488281 L 334.183594 233.488281 L 314.375 285.03125 L 297.921875 285.03125 L 307.769531 259.457031 L 287.566406 285.03125 L 269.71875 285.03125 L 273.632812 259.457031 L 257.011719 285.03125 L 236.585938 285.03125 Z M 270.554688 233.488281 "/><path fill-rule="nonzero" fill="rgb(11.372375%, 18.03894%, 33.332825%)" fill-opacity="1" d="M 396.988281 233.476562 L 436.292969 233.476562 C 437.265625 233.476562 438.15625 233.777344 438.960938 234.378906 C 439.765625 234.976562 440.453125 235.746094 441.011719 236.683594 C 441.574219 237.621094 442.007812 238.648438 442.308594 239.773438 C 442.605469 240.898438 442.757812 241.988281 442.757812 243.035156 C 442.757812 243.824219 442.605469 244.703125 442.308594 245.679688 L 441.632812 247.421875 C 441.40625 247.945312 441.125 248.527344 440.789062 249.164062 C 440.453125 249.804688 440.113281 250.328125 439.777344 250.738281 L 425.832031 264.347656 L 438.707031 285.261719 L 416.5 285.261719 L 406.828125 269.40625 C 406.601562 268.957031 406.367188 268.414062 406.125 267.777344 C 405.882812 267.140625 405.757812 266.503906 405.757812 265.863281 C 405.757812 265.527344 405.816406 265.210938 405.929688 264.910156 L 406.152344 264.347656 L 414.597656 255.96875 C 416.515625 254.066406 415.171875 250.796875 412.46875 250.796875 L 410.257812 250.796875 L 396.988281 285.261719 L 377.085938 285.261719 Z M 396.988281 233.476562 "/><path fill-rule="nonzero" fill="rgb(94.902039%, 72.941589%, 14.509583%)" fill-opacity="1" d="M 467.011719 245.859375 L 469.507812 239.367188 C 470.597656 236.527344 468.5 233.476562 465.460938 233.476562 L 451.753906 233.476562 L 450.628906 236.402344 Z M 467.011719 245.859375 "/><path fill-rule="nonzero" fill="rgb(11.372375%, 18.03894%, 33.332825%)" fill-opacity="1" d="M 449.746094 238.703125 L 431.847656 285.261719 L 451.867188 285.261719 L 466.125 248.160156 Z M 449.746094 238.703125 "/><path fill-rule="nonzero" fill="rgb(11.372375%, 18.03894%, 33.332825%)" fill-opacity="1" d="M 348.914062 265.011719 L 358.441406 265.011719 L 363.59375 250.925781 L 354.066406 250.925781 Z M 390.417969 233.417969 L 373.453125 277.480469 C 372.613281 279.785156 371.222656 281.605469 369.277344 282.953125 C 367.328125 284.300781 365.148438 284.972656 362.734375 284.972656 L 320.976562 284.972656 L 337.941406 240.910156 C 338.777344 238.605469 340.167969 236.785156 342.117188 235.4375 C 344.0625 234.089844 346.242188 233.417969 348.660156 233.417969 Z M 390.417969 233.417969 "/><path fill-rule="nonzero" fill="rgb(11.372375%, 18.03894%, 33.332825%)" fill-opacity="1" d="M 291.765625 233.488281 L 255.480469 233.488281 C 255.480469 233.488281 263.128906 259.707031 291.765625 233.488281 "/></g>
</svg>
